<svg width="232" height="100" viewBox="0 0 232 100" fill="none" xmlns="http://www.w3.org/2000/svg">
<g clip-path="url(#clip0_611_3571)">
<mask id="mask0_611_3571" style="mask-type:luminance" maskUnits="userSpaceOnUse" x="36" y="26" width="160" height="49">
<path d="M196 26H36V74.2918H196V26Z" fill="white"/>
</mask>
<g mask="url(#mask0_611_3571)">
<path d="M135.239 63.7249C125.952 70.57 112.492 74.2221 100.902 74.2221C84.6522 74.2221 70.0227 68.2119 58.9552 58.2154C58.0856 57.4294 58.8647 56.3581 59.9082 56.9703C71.8522 63.9197 86.6208 68.1005 101.876 68.1005C112.164 68.1005 123.483 65.9719 133.889 61.5546C135.461 60.8868 136.776 62.5841 135.239 63.7249Z" fill="#FF9900"/>
<path d="M139.1 59.306C137.917 57.7896 131.253 58.5895 128.262 58.9444C127.35 59.0558 127.211 58.2625 128.032 57.6922C133.34 53.9566 142.049 55.0349 143.065 56.287C144.08 57.5461 142.801 66.2762 137.813 70.4433C137.048 71.0833 136.317 70.7425 136.658 69.8938C137.778 67.0974 140.289 60.8295 139.1 59.306Z" fill="#FF9900"/>
<path d="M128.47 31.3229V27.6917C128.47 27.1421 128.888 26.7734 129.388 26.7734H145.645C146.167 26.7734 146.585 27.1491 146.585 27.6917V30.8012C146.578 31.3229 146.139 32.0046 145.36 33.0829L136.936 45.1104C140.067 45.0339 143.371 45.5 146.209 47.1C146.849 47.4617 147.023 47.9904 147.072 48.5121V52.3868C147.072 52.9155 146.487 53.5346 145.875 53.2146C140.873 50.5921 134.23 50.3069 128.7 53.2425C128.136 53.5485 127.545 52.9364 127.545 52.4077V48.7277C127.545 48.1365 127.552 47.1278 128.143 46.2304L137.903 32.2342H129.409C128.888 32.2342 128.47 31.8655 128.47 31.3229Z" fill="#221F1F"/>
<path d="M69.1673 53.9772H64.2212C63.7482 53.9424 63.3726 53.5876 63.3378 53.1354V27.7516C63.3378 27.2438 63.7621 26.8403 64.2908 26.8403H68.903C69.383 26.8612 69.7654 27.2299 69.8003 27.689V31.0072H69.8908C71.094 27.8003 73.3548 26.3047 76.4019 26.3047C79.4975 26.3047 81.4313 27.8003 82.8227 31.0072C84.0191 27.8003 86.7391 26.3047 89.6537 26.3047C91.7267 26.3047 93.9945 27.1603 95.3788 29.0803C96.9439 31.2159 96.6239 34.3184 96.6239 37.0384L96.6172 53.0589C96.6172 53.5667 96.1926 53.9772 95.6639 53.9772H90.7251C90.231 53.9424 89.8345 53.5459 89.8345 53.0589V39.6053C89.8345 38.534 89.9321 35.8628 89.6956 34.8471C89.3267 33.1428 88.2207 32.6628 86.7878 32.6628C85.5913 32.6628 84.3391 33.4628 83.8313 34.7428C83.3235 36.0228 83.3721 38.1653 83.3721 39.6053V53.0589C83.3721 53.5667 82.9478 53.9772 82.4191 53.9772H77.4799C76.9791 53.9424 76.5897 53.5459 76.5897 53.0589L76.5827 39.6053C76.5827 36.774 77.0489 32.6072 73.5359 32.6072C69.9811 32.6072 70.1203 36.6697 70.1203 39.6053V53.0589C70.1203 53.5667 69.6959 53.9772 69.1673 53.9772Z" fill="#221F1F"/>
<path d="M160.581 26.3047C167.92 26.3047 171.892 32.6072 171.892 40.6209C171.892 48.3634 167.502 54.5058 160.581 54.5058C153.374 54.5058 149.451 48.2034 149.451 40.3496C149.451 32.4472 153.423 26.3047 160.581 26.3047ZM160.623 31.4872C156.977 31.4872 156.748 36.454 156.748 39.5496C156.748 42.6522 156.699 49.2746 160.581 49.2746C164.414 49.2746 164.595 43.9322 164.595 40.6765C164.595 38.534 164.504 35.974 163.857 33.9428C163.301 32.1759 162.195 31.4872 160.623 31.4872Z" fill="#221F1F"/>
<path d="M181.408 53.9772H176.483C175.989 53.9424 175.593 53.5459 175.593 53.0589L175.586 27.6681C175.628 27.2021 176.038 26.8403 176.539 26.8403H181.123C181.555 26.8612 181.909 27.1534 182.007 27.5499V31.4315H182.097C183.481 27.9603 185.422 26.3047 188.838 26.3047C191.057 26.3047 193.221 27.1047 194.612 29.2959C195.906 31.3272 195.906 34.7428 195.906 37.1984V53.1772C195.85 53.6224 195.439 53.9772 194.953 53.9772H189.993C189.54 53.9424 189.165 53.6085 189.116 53.1772V39.3896C189.116 36.614 189.436 32.5515 186.02 32.5515C184.817 32.5515 183.711 33.3585 183.161 34.5828C182.466 36.134 182.375 37.6784 182.375 39.3896V53.0589C182.368 53.5667 181.937 53.9772 181.408 53.9772Z" fill="#221F1F"/>
<path d="M115.51 41.8535V40.7822C111.935 40.7822 108.157 41.5474 108.157 45.763C108.157 47.8986 109.264 49.3455 111.163 49.3455C112.554 49.3455 113.799 48.4899 114.585 47.0986C115.559 45.3873 115.51 43.7804 115.51 41.8535ZM120.498 53.9089C120.171 54.2011 119.698 54.2219 119.33 54.0271C117.688 52.6637 117.396 52.0307 116.491 50.7298C113.778 53.4985 111.858 54.3263 108.339 54.3263C104.179 54.3263 100.937 51.7594 100.937 46.6186C100.937 42.6048 103.114 39.8709 106.21 38.5353C108.895 37.3527 112.645 37.144 115.51 36.8171V36.1771C115.51 35.0014 115.601 33.6102 114.912 32.5946C114.307 31.6833 113.152 31.3076 112.137 31.3076C110.252 31.3076 108.568 32.2746 108.157 34.278C108.074 34.7232 107.747 35.1614 107.302 35.1823L102.502 34.6675C102.099 34.5771 101.653 34.2501 101.765 33.631C102.871 27.8155 108.123 26.0625 112.825 26.0625C115.232 26.0625 118.377 26.7025 120.276 28.5251C122.683 30.772 122.453 33.7702 122.453 37.0327V44.7404C122.453 47.0569 123.413 48.0725 124.317 49.3246C124.637 49.7698 124.707 50.3055 124.303 50.6394C123.295 51.4811 121.5 53.0463 120.512 53.9228L120.498 53.9089Z" fill="#221F1F"/>
<path d="M50.6702 41.8535V40.7822C47.0946 40.7822 43.3173 41.5474 43.3173 45.763C43.3173 47.8986 44.4233 49.3455 46.3224 49.3455C47.7137 49.3455 48.9589 48.4899 49.745 47.0986C50.7188 45.3873 50.6702 43.7804 50.6702 41.8535ZM55.6579 53.9089C55.3309 54.2011 54.8579 54.2219 54.4892 54.0271C52.8475 52.6637 52.5554 52.0307 51.651 50.7298C48.938 53.4985 47.0181 54.3263 43.4981 54.3263C39.3382 54.3263 36.0966 51.7594 36.0966 46.6186C36.0966 42.6048 38.2739 39.8709 41.3695 38.5353C44.0547 37.3527 47.8041 37.144 50.6702 36.8171V36.1771C50.6702 35.0014 50.7606 33.6102 50.0719 32.5946C49.4667 31.6833 48.312 31.3076 47.2963 31.3076C45.4111 31.3076 43.7277 32.2746 43.3173 34.278C43.2338 34.7232 42.9068 35.1614 42.4616 35.1823L37.6617 34.6675C37.2583 34.5771 36.8131 34.2501 36.9244 33.631C38.0304 27.8155 43.2825 26.0625 47.985 26.0625C50.3919 26.0625 53.5362 26.7025 55.4353 28.5251C57.8422 30.772 57.6126 33.7702 57.6126 37.0327V44.7404C57.6126 47.0569 58.5726 48.0725 59.4769 49.3246C59.7969 49.7698 59.8665 50.3055 59.463 50.6394C58.4544 51.4811 56.6596 53.0463 55.6718 53.9228L55.6579 53.9089Z" fill="#221F1F"/>
</g>
</g>
<defs>
<clipPath id="clip0_611_3571">
<rect width="160" height="48.32" fill="white" transform="translate(36 26)"/>
</clipPath>
</defs>
</svg>
