<svg width="232" height="100" viewBox="0 0 232 100" fill="none" xmlns="http://www.w3.org/2000/svg">
<g clip-path="url(#clip0_611_3598)">
<mask id="mask0_611_3598" style="mask-type:luminance" maskUnits="userSpaceOnUse" x="46" y="22" width="140" height="57">
<path d="M186 22H46V78.1025H186V22Z" fill="white"/>
</mask>
<g mask="url(#mask0_611_3598)">
<path d="M134.652 51.7707C128.289 51.9902 124.339 53.1606 124.339 57.3298C124.339 60.0363 126.533 62.962 132.019 62.962C139.407 62.962 143.283 58.9389 143.283 52.3559V51.6245C140.723 51.6245 137.505 51.6976 134.652 51.7707ZM150.305 60.475C150.305 62.5232 150.378 64.4981 150.525 66.3267H144.015C143.868 64.8637 143.795 63.3277 143.795 61.938C140.284 66.2537 136.042 67.4971 130.264 67.4971C121.559 67.4971 116.951 62.962 116.951 57.6224C116.951 49.9422 123.242 47.3089 134.14 47.0164C137.139 46.9432 140.504 46.9432 143.283 46.9432V46.2117C143.283 41.0916 139.992 38.9704 134.287 38.9704C130.044 38.9704 126.972 40.7258 126.606 43.7248H119.219C120.023 36.1909 127.923 34.2891 134.872 34.2891C143.21 34.2891 150.232 37.288 150.232 46.0654V60.475H150.305Z" fill="#F5AF02"/>
<path d="M73.9415 48.0375C73.6489 41.4545 68.9676 39.0407 63.8475 39.0407C58.4347 38.9675 54.046 41.7471 53.3145 48.0375H73.9415ZM53.1682 52.7189C53.534 59.0824 57.9227 62.8859 63.9937 62.8859C68.163 62.8859 71.8934 61.2037 73.1369 57.4733H80.3784C78.9154 64.9341 70.9425 67.4942 64.0669 67.4942C51.559 67.4942 46 60.6185 46 51.3289C46 41.0888 51.7053 34.3594 64.14 34.3594C74.0146 34.3594 81.3293 39.5527 81.3293 50.8171V52.7189H53.1682Z" fill="#E53238"/>
<path d="M99.323 62.6689C105.833 62.6689 110.295 57.9876 110.295 50.8924C110.295 43.7973 105.833 39.116 99.323 39.116C92.813 39.116 88.3512 43.7973 88.3512 50.8924C88.3512 57.9876 92.813 62.6689 99.323 62.6689ZM81.3291 22H88.3512V39.628C91.7891 35.5319 96.5435 34.3616 101.225 34.3616C109.051 34.3616 117.755 39.628 117.755 51.0388C117.755 60.5476 110.88 67.4964 101.151 67.4964C96.0313 67.4964 91.2769 65.6677 88.2779 62.0837C88.2779 63.5464 88.2048 65.0094 88.0586 66.399H81.1099C81.256 64.2047 81.3291 61.4254 81.3291 59.1577V22Z" fill="#0064D2"/>
<path d="M186 35.5312L164.276 78.1749H156.449L162.667 66.3253L146.355 35.5312H154.548L166.543 59.5961L178.54 35.5312H186Z" fill="#86B817"/>
</g>
</g>
<defs>
<clipPath id="clip0_611_3598">
<rect width="140" height="56.28" fill="white" transform="translate(46 22)"/>
</clipPath>
</defs>
</svg>
