<svg width="232" height="100" viewBox="0 0 232 100" fill="none" xmlns="http://www.w3.org/2000/svg">
<g clip-path="url(#clip0_611_3564)">
<mask id="mask0_611_3564" style="mask-type:luminance" maskUnits="userSpaceOnUse" x="46" y="17" width="140" height="67">
<path d="M186 17H46V83.4885H186V17Z" fill="white"/>
</mask>
<g mask="url(#mask0_611_3564)">
<path d="M61.0305 22.1361V40.9518C61.0305 40.9518 67.6611 40.9518 71.209 40.6781C73.9999 40.1948 74.5107 39.9211 75.0214 37.1303L76.0521 33.0443H79.08L78.5693 41.9733L78.8429 51.1212H75.7783L75.0214 47.5551C74.2643 45.0104 73.2338 44.4905 71.209 44.2534C68.6644 43.9798 61.0305 43.9798 61.0305 43.9798V59.7583C61.0305 62.7955 62.5719 64.0905 66.1198 64.0905H76.809C80.1107 64.0905 83.4122 63.8169 85.4736 59.0012L88.2372 52.8815H90.8C90.5354 54.1583 89.2586 65.3583 89.0214 67.8848C89.0214 67.8848 79.3536 67.6384 75.295 67.6384H56.9628L46.0364 67.8848V65.1212L49.5843 64.3369C52.1471 63.8169 52.9041 63.0598 52.9041 61.0262C52.9041 61.0262 53.1778 54.1583 53.1778 42.7029C53.1778 31.284 52.9041 24.4071 52.9041 24.4071C52.9041 22.127 52.1471 21.6162 49.5843 21.1055L46.0364 20.3485V17.5576L56.7256 17.7765H77.0736C81.1411 17.7765 87.9908 17.0469 87.9908 17.0469C87.9908 17.0469 87.7446 21.3518 87.4708 31.5303H84.68L83.6586 27.955C82.6554 23.3856 81.1322 21.1055 78.3229 21.1055H62.3256C61.0305 21.1055 61.0305 21.3518 61.0305 22.1361ZM102.228 24.1426H105.283V34.8319L115.726 34.3211L115.215 39.1641L105.037 38.3798V57.2226C105.037 62.5491 106.825 64.6104 109.88 64.6104C112.653 64.6104 114.705 63.069 115.462 61.7922L116.976 63.5798C115.462 67.1276 111.157 68.9152 107.071 68.9152C102.009 68.9152 97.8958 65.8783 97.8958 60.0319V38.6443H91.8214V36.1088C96.9197 35.5889 100.714 32.5335 102.228 24.1426ZM124.117 56.9491L126.151 61.7922C126.908 63.8169 128.696 65.8783 132.754 65.8783C137.087 65.8783 138.865 63.5798 138.865 60.789C138.865 52.1244 121.819 54.669 121.819 42.9765C121.819 36.3733 127.154 33.2905 134.022 33.2905C137.087 33.2905 141.656 33.8013 143.954 34.8319C143.444 37.3765 143.17 40.6781 143.17 43.2228L140.653 43.469L138.865 38.3798C138.354 37.1303 136.302 36.0996 133.776 36.0996C130.72 36.0996 127.665 37.3765 127.665 40.6781C127.665 48.5583 145.231 46.789 145.231 58.4905C145.231 65.1212 139.385 68.669 132.244 68.669C126.908 68.669 121.545 66.6077 121.545 66.6077C122.065 63.5798 121.819 60.2783 121.545 56.9491H124.117ZM143.963 81.3648C144.72 78.574 145.231 75.0262 145.742 71.697L148.533 71.4508L149.563 76.7862C149.81 78.063 150.567 79.0848 152.6 79.0848C155.902 79.0848 160.234 77.0598 164.311 69.9369C162.505 65.6044 157.17 51.6319 152.327 40.9426C151.059 38.1335 150.813 37.8873 149.053 37.3765L147.758 36.884V34.312L155.41 34.5856L164.804 34.0749V36.6195L162.505 37.1303C160.718 37.3765 159.988 38.3798 159.988 39.4104C159.988 39.6749 159.988 39.9211 160.225 40.4319C160.718 41.9733 164.804 53.4012 167.859 61.0351C170.386 55.6997 175.229 43.7426 175.986 41.7088C176.259 40.6781 176.496 40.4319 176.496 39.6749C176.496 38.3798 175.739 37.6228 173.979 37.1303L172.173 36.6195V34.0749L179.314 34.3211L185.918 34.0749V36.6195L184.641 37.6228C182.105 38.6443 181.832 38.8905 180.829 40.9426L169.647 67.1184C163.016 82.1401 156.148 83.4169 151.324 83.4169C148.268 83.4169 145.97 82.6326 143.963 81.3648Z" fill="#F1641E"/>
</g>
</g>
<defs>
<clipPath id="clip0_611_3564">
<rect width="140" height="66.64" fill="white" transform="translate(46 17)"/>
</clipPath>
</defs>
</svg>
