<svg width="232" height="100" viewBox="0 0 232 100" fill="none" xmlns="http://www.w3.org/2000/svg">
<path d="M105.032 52.0466C105.032 59.1129 99.5043 64.3199 92.7202 64.3199C85.9362 64.3199 80.4082 59.1129 80.4082 52.0466C80.4082 44.9306 85.9362 39.7734 92.7202 39.7734C99.5043 39.7734 105.032 44.9306 105.032 52.0466ZM99.6426 52.0466C99.6426 47.6309 96.4387 44.6097 92.7202 44.6097C89.0017 44.6097 85.7978 47.6309 85.7978 52.0466C85.7978 56.4181 89.0017 59.4837 92.7202 59.4837C96.4387 59.4837 99.6426 56.4126 99.6426 52.0466Z" fill="#EA4335"/>
<path d="M131.593 52.0466C131.593 59.1129 126.065 64.3199 119.281 64.3199C112.497 64.3199 106.969 59.1129 106.969 52.0466C106.969 44.9362 112.497 39.7734 119.281 39.7734C126.065 39.7734 131.593 44.9306 131.593 52.0466ZM126.204 52.0466C126.204 47.6309 123 44.6097 119.281 44.6097C115.563 44.6097 112.359 47.6309 112.359 52.0466C112.359 56.4181 115.563 59.4837 119.281 59.4837C123 59.4837 126.204 56.4126 126.204 52.0466Z" fill="#FBBC05"/>
<path d="M157.048 40.5149V62.5491C157.048 71.613 151.702 75.3149 145.383 75.3149C139.434 75.3149 135.854 71.3364 134.504 68.0827L139.197 66.1294C140.032 68.1269 142.08 70.4841 145.378 70.4841C149.422 70.4841 151.929 67.9886 151.929 63.2907V61.5256H151.741C150.535 63.014 148.211 64.3144 145.278 64.3144C139.141 64.3144 133.519 58.9691 133.519 52.091C133.519 45.1631 139.141 39.7734 145.278 39.7734C148.205 39.7734 150.529 41.0738 151.741 42.518H151.929V40.5205H157.048V40.5149ZM152.311 52.091C152.311 47.7692 149.428 44.6097 145.759 44.6097C142.041 44.6097 138.925 47.7692 138.925 52.091C138.925 56.3683 142.041 59.4837 145.759 59.4837C149.428 59.4837 152.311 56.3683 152.311 52.091Z" fill="#4285F4"/>
<path d="M165.485 27.6016V63.5691H160.229V27.6016H165.485Z" fill="#34A853"/>
<path d="M185.97 56.0917L190.154 58.8805C188.804 60.8782 185.551 64.3199 179.928 64.3199C172.956 64.3199 167.749 58.9304 167.749 52.0468C167.749 44.7481 173 39.7734 179.325 39.7734C185.694 39.7734 188.81 44.8421 189.828 47.5813L190.387 48.9756L173.98 55.7707C175.235 58.2331 177.189 59.4893 179.928 59.4893C182.673 59.4893 184.577 58.1391 185.97 56.0917ZM173.095 51.676L184.062 47.122C183.459 45.5892 181.644 44.5213 179.508 44.5213C176.769 44.5213 172.956 46.9393 173.095 51.676Z" fill="#EA4335"/>
<path d="M60.5099 48.8571V43.6501H78.0564C78.2279 44.5577 78.3165 45.6312 78.3165 46.7932C78.3165 50.6998 77.2485 55.5305 73.8068 58.9723C70.459 62.4584 66.1816 64.3177 60.5153 64.3177C50.0128 64.3177 41.1814 55.7629 41.1814 45.2604C41.1814 34.7579 50.0128 26.2031 60.5153 26.2031C66.3255 26.2031 70.4646 28.4829 73.5743 31.4544L69.9001 35.1286C67.6702 33.037 64.6488 31.4101 60.5099 31.4101C52.8404 31.4101 46.8421 37.591 46.8421 45.2604C46.8421 52.9298 52.8404 59.1107 60.5099 59.1107C65.4844 59.1107 68.3176 57.1131 70.1326 55.2981C71.6044 53.8262 72.5728 51.7236 72.9546 48.8517L60.5099 48.8571Z" fill="#4285F4"/>
</svg>
