<svg width="232" height="100" viewBox="0 0 232 100" fill="none" xmlns="http://www.w3.org/2000/svg">
<path d="M70.2055 34.9742C70.1736 34.7512 69.9825 34.6239 69.8232 34.6239C69.664 34.6239 66.511 34.5601 66.511 34.5601C66.511 34.5601 63.8676 32.0123 63.6129 31.7256C63.358 31.4708 62.8484 31.5345 62.6574 31.5982C62.6574 31.5982 62.1478 31.7575 61.3197 32.0123C61.1923 31.5664 60.9693 31.0249 60.6827 30.4517C59.7591 28.6681 58.3578 27.7127 56.7016 27.7127C56.5742 27.7127 56.4787 27.7127 56.3512 27.7445C56.2876 27.6808 56.2557 27.6171 56.192 27.5853C55.4595 26.8209 54.5359 26.4387 53.4212 26.4706C51.2873 26.5343 49.1535 28.0949 47.4018 30.8339C46.1916 32.7766 45.268 35.1971 44.9813 37.0762C42.529 37.8405 40.8091 38.382 40.7454 38.382C39.5034 38.7642 39.4715 38.796 39.3123 39.9744C39.2486 40.8661 36 65.9948 36 65.9948L63.2625 70.7084L75.0783 67.7783C75.0464 67.7783 70.2374 35.1971 70.2055 34.9742ZM59.9502 32.4581C59.3133 32.6492 58.6125 32.8722 57.8482 33.1269C57.8482 32.0441 57.6889 30.5154 57.2112 29.2414C58.8355 29.4962 59.6317 31.3434 59.9502 32.4581ZM56.415 33.541C54.9818 33.9869 53.4212 34.4646 51.8607 34.9424C52.3065 33.2543 53.1346 31.5982 54.1537 30.4835C54.5359 30.0695 55.0773 29.6236 55.6825 29.3688C56.3195 30.6109 56.4469 32.3626 56.415 33.541ZM53.485 27.9038C53.9945 27.9038 54.4086 27.9993 54.7588 28.2541C54.1856 28.5407 53.6123 28.9866 53.1027 29.5599C51.7333 31.0249 50.6822 33.2862 50.2682 35.4837C48.9624 35.8978 47.6885 36.2799 46.5419 36.6303C47.3063 33.1588 50.2045 27.9993 53.485 27.9038Z" fill="#95BF47"/>
<path d="M69.8233 34.6199C69.6641 34.6199 66.5111 34.5563 66.5111 34.5563C66.5111 34.5563 63.8677 32.0084 63.6128 31.7217C63.5173 31.6262 63.3899 31.5625 63.2625 31.5625V70.7045L75.0784 67.7745C75.0784 67.7745 70.2692 35.1933 70.2373 34.9703C70.1737 34.7473 69.9826 34.6199 69.8233 34.6199Z" fill="#5E8E3E"/>
<path d="M56.7021 40.7069L55.3326 45.8346C55.3326 45.8346 53.8039 45.134 51.9884 45.2614C49.3132 45.4206 49.3132 47.1086 49.3132 47.5226C49.4724 49.8157 55.4918 50.3253 55.8422 55.7078C56.0969 59.9436 53.6128 62.8419 49.982 63.0647C45.6506 63.2877 43.262 60.7398 43.262 60.7398L44.1856 56.8225C44.1856 56.8225 46.6061 58.6378 48.517 58.5104C49.7591 58.4466 50.2369 57.3957 50.1731 56.695C49.982 53.7012 45.0773 53.8923 44.7588 48.9558C44.5041 44.8155 47.2112 40.6433 53.1988 40.2611C55.5237 40.1018 56.7021 40.7069 56.7021 40.7069Z" fill="white"/>
<path d="M91.0667 51.6268C89.6971 50.8943 88.9965 50.2573 88.9965 49.3973C88.9965 48.3145 89.9837 47.6138 91.5126 47.6138C93.2961 47.6138 94.8884 48.3464 94.8884 48.3464L96.1306 44.5245C96.1306 44.5245 94.9841 43.6328 91.6081 43.6328C86.8945 43.6328 83.6141 46.34 83.6141 50.1299C83.6141 52.2956 85.1428 53.9199 87.1811 55.0983C88.8373 56.0219 89.4105 56.6907 89.4105 57.678C89.4105 58.6971 88.5824 59.5252 87.0537 59.5252C84.7924 59.5252 82.6268 58.3469 82.6268 58.3469L81.2891 62.1686C81.2891 62.1686 83.2637 63.5063 86.6079 63.5063C91.4488 63.5063 94.9522 61.1177 94.9522 56.8181C94.9203 54.4932 93.1686 52.837 91.0667 51.6268Z" fill="black"/>
<path d="M110.367 43.5721C107.978 43.5721 106.099 44.7187 104.666 46.4385L104.602 46.4066L106.673 35.5781H101.29L96.0352 63.159H101.418L103.201 53.7318C103.902 50.1648 105.749 47.9672 107.469 47.9672C108.679 47.9672 109.157 48.7953 109.157 49.9737C109.157 50.7062 109.093 51.6298 108.934 52.3624L106.896 63.159H112.278L114.38 52.012C114.603 50.8336 114.762 49.4322 114.762 48.4768C114.794 45.4194 113.202 43.5721 110.367 43.5721Z" fill="black"/>
<path d="M126.992 43.5703C120.495 43.5703 116.195 49.4303 116.195 55.9594C116.195 60.1316 118.775 63.5075 123.616 63.5075C129.985 63.5075 134.285 57.8067 134.285 51.1184C134.317 47.2647 132.056 43.5703 126.992 43.5703ZM124.348 59.399C122.501 59.399 121.737 57.8384 121.737 55.8639C121.737 52.7745 123.329 47.7424 126.259 47.7424C128.17 47.7424 128.807 49.3986 128.807 50.991C128.807 54.3033 127.183 59.399 124.348 59.399Z" fill="black"/>
<path d="M148.108 43.5703C144.477 43.5703 142.407 46.7869 142.407 46.7869H142.343L142.662 43.8887H137.885C137.662 45.8315 137.216 48.8252 136.802 51.0547L133.044 70.8008H138.426L139.923 62.8068H140.05C140.05 62.8068 141.165 63.5076 143.203 63.5076C149.541 63.5076 153.682 57.0104 153.682 50.4496C153.682 46.8188 152.057 43.5703 148.108 43.5703ZM142.949 59.4627C141.547 59.4627 140.719 58.6665 140.719 58.6665L141.611 53.6344C142.248 50.2584 144 48.029 145.879 48.029C147.535 48.029 148.044 49.5578 148.044 50.991C148.044 54.4943 145.974 59.4627 142.949 59.4627Z" fill="black"/>
<path d="M161.388 35.8281C159.668 35.8281 158.299 37.1977 158.299 38.9494C158.299 40.5417 159.318 41.6564 160.846 41.6564H160.91C162.598 41.6564 164.031 40.51 164.063 38.5353C164.063 36.9747 163.012 35.8281 161.388 35.8281Z" fill="black"/>
<path d="M153.84 63.1248H159.223L162.885 44.0156H157.471L153.84 63.1248Z" fill="black"/>
<path d="M176.611 43.9856H172.853L173.044 43.0938C173.363 41.2466 174.445 39.6223 176.261 39.6223C177.217 39.6223 177.982 39.909 177.982 39.909L179.032 35.673C179.032 35.673 178.109 35.1953 176.102 35.1953C174.191 35.1953 172.28 35.7368 170.816 36.9789C168.968 38.5394 168.108 40.8007 167.694 43.0938L167.535 43.9856H165.019L164.223 48.0622H166.739L163.873 63.1585H169.255L172.121 48.0622H175.848L176.611 43.9856Z" fill="black"/>
<path d="M189.605 44.0156C189.605 44.0156 186.23 52.5192 184.733 57.1691H184.669C184.573 55.6722 183.331 44.0156 183.331 44.0156H177.662L180.911 61.5642C180.975 61.9465 180.942 62.2012 180.784 62.4561C180.146 63.6663 179.095 64.8446 177.853 65.7046C176.834 66.437 175.688 66.9148 174.796 67.2333L176.292 71.8195C177.376 71.5966 179.669 70.673 181.58 68.8895C184.032 66.5963 186.326 63.0293 188.65 58.1884L195.243 44.0156H189.605Z" fill="black"/>
</svg>
