<svg width="44" height="23" viewBox="0 0 44 23" fill="none" xmlns="http://www.w3.org/2000/svg">
<g id="Frame" clip-path="url(#clip0_611_13334)">
<path id="Vector" d="M-0.0742188 0H43.6258V23H-0.0742188" fill="#B31942"/>
<g id="Vector_2">
<path d="M-0.0742188 2.65625H43.6258H-0.0742188ZM43.6258 6.19471H-0.0742188H43.6258ZM-0.0742188 9.73317H43.6258H-0.0742188ZM43.6258 13.2716H-0.0742188H43.6258ZM-0.0742188 16.8101H43.6258H-0.0742188ZM43.6258 20.3486H-0.0742188H43.6258Z" fill="black"/>
<path d="M-0.0742188 2.65625H43.6258M43.6258 6.19471H-0.0742188M-0.0742188 9.73317H43.6258M43.6258 13.2716H-0.0742188M-0.0742188 16.8101H43.6258M43.6258 20.3486H-0.0742188" stroke="white" stroke-width="1.76923"/>
</g>
<path id="Vector_3" d="M-0.0742188 0H17.4058V12.3846H-0.0742188" fill="#0A3161"/>
<g id="Group">
<g id="s18">
<g id="s9">
<g id="s5">
<g id="s4">
<path id="s" d="M1.38399 0.53125L1.79996 1.81148L0.710938 1.02025H2.05705L0.968022 1.81148L1.38399 0.53125Z" fill="white"/>
<path id="s_2" d="M1.38399 3.00781L1.79996 4.28804L0.710938 3.49682H2.05705L0.968022 4.28804L1.38399 3.00781Z" fill="white"/>
<path id="s_3" d="M1.38399 5.48438L1.79996 6.7646L0.710938 5.97338H2.05705L0.968022 6.7646L1.38399 5.48438Z" fill="white"/>
<path id="s_4" d="M1.38399 7.96094L1.79996 9.24116L0.710938 8.44994H2.05705L0.968022 9.24116L1.38399 7.96094Z" fill="white"/>
</g>
<path id="s_5" d="M1.38399 10.4375L1.79996 11.7177L0.710938 10.9265H2.05705L0.968022 11.7177L1.38399 10.4375Z" fill="white"/>
</g>
<g id="s4_2">
<path id="s_6" d="M2.84102 1.77344L3.257 3.05366L2.16797 2.26244H3.51408L2.42505 3.05366L2.84102 1.77344Z" fill="white"/>
<path id="s_7" d="M2.84102 4.25L3.257 5.53023L2.16797 4.739H3.51408L2.42505 5.53023L2.84102 4.25Z" fill="white"/>
<path id="s_8" d="M2.84102 6.72656L3.257 8.00679L2.16797 7.21557H3.51408L2.42505 8.00679L2.84102 6.72656Z" fill="white"/>
<path id="s_9" d="M2.84102 9.20312L3.257 10.4834L2.16797 9.69213H3.51408L2.42505 10.4834L2.84102 9.20312Z" fill="white"/>
</g>
</g>
<g id="s9_2">
<g id="s5_2">
<g id="s4_3">
<path id="s_10" d="M4.29806 0.53125L4.71403 1.81148L3.625 1.02025H4.97111L3.88208 1.81148L4.29806 0.53125Z" fill="white"/>
<path id="s_11" d="M4.29806 3.00781L4.71403 4.28804L3.625 3.49682H4.97111L3.88208 4.28804L4.29806 3.00781Z" fill="white"/>
<path id="s_12" d="M4.29806 5.48438L4.71403 6.7646L3.625 5.97338H4.97111L3.88208 6.7646L4.29806 5.48438Z" fill="white"/>
<path id="s_13" d="M4.29806 7.96094L4.71403 9.24116L3.625 8.44994H4.97111L3.88208 9.24116L4.29806 7.96094Z" fill="white"/>
</g>
<path id="s_14" d="M4.29806 10.4375L4.71403 11.7177L3.625 10.9265H4.97111L3.88208 11.7177L4.29806 10.4375Z" fill="white"/>
</g>
<g id="s4_4">
<path id="s_15" d="M5.75509 1.77344L6.17106 3.05366L5.08203 2.26244H6.42814L5.33912 3.05366L5.75509 1.77344Z" fill="white"/>
<path id="s_16" d="M5.75509 4.25L6.17106 5.53023L5.08203 4.739H6.42814L5.33912 5.53023L5.75509 4.25Z" fill="white"/>
<path id="s_17" d="M5.75509 6.72656L6.17106 8.00679L5.08203 7.21557H6.42814L5.33912 8.00679L5.75509 6.72656Z" fill="white"/>
<path id="s_18" d="M5.75509 9.20312L6.17106 10.4834L5.08203 9.69213H6.42814L5.33912 10.4834L5.75509 9.20312Z" fill="white"/>
</g>
</g>
</g>
<g id="s18_2">
<g id="s9_3">
<g id="s5_3">
<g id="s4_5">
<path id="s_19" d="M7.21212 0.53125L7.62809 1.81148L6.53906 1.02025H7.88517L6.79615 1.81148L7.21212 0.53125Z" fill="white"/>
<path id="s_20" d="M7.21212 3.00781L7.62809 4.28804L6.53906 3.49682H7.88517L6.79615 4.28804L7.21212 3.00781Z" fill="white"/>
<path id="s_21" d="M7.21212 5.48438L7.62809 6.7646L6.53906 5.97338H7.88517L6.79615 6.7646L7.21212 5.48438Z" fill="white"/>
<path id="s_22" d="M7.21212 7.96094L7.62809 9.24116L6.53906 8.44994H7.88517L6.79615 9.24116L7.21212 7.96094Z" fill="white"/>
</g>
<path id="s_23" d="M7.21212 10.4375L7.62809 11.7177L6.53906 10.9265H7.88517L6.79615 11.7177L7.21212 10.4375Z" fill="white"/>
</g>
<g id="s4_6">
<path id="s_24" d="M8.66915 1.77344L9.08512 3.05366L7.99609 2.26244H9.3422L8.25318 3.05366L8.66915 1.77344Z" fill="white"/>
<path id="s_25" d="M8.66915 4.25L9.08512 5.53023L7.99609 4.739H9.3422L8.25318 5.53023L8.66915 4.25Z" fill="white"/>
<path id="s_26" d="M8.66915 6.72656L9.08512 8.00679L7.99609 7.21557H9.3422L8.25318 8.00679L8.66915 6.72656Z" fill="white"/>
<path id="s_27" d="M8.66915 9.20312L9.08512 10.4834L7.99609 9.69213H9.3422L8.25318 10.4834L8.66915 9.20312Z" fill="white"/>
</g>
</g>
<g id="s9_4">
<g id="s5_4">
<g id="s4_7">
<path id="s_28" d="M10.1262 0.53125L10.5422 1.81148L9.45312 1.02025H10.7992L9.71021 1.81148L10.1262 0.53125Z" fill="white"/>
<path id="s_29" d="M10.1262 3.00781L10.5422 4.28804L9.45312 3.49682H10.7992L9.71021 4.28804L10.1262 3.00781Z" fill="white"/>
<path id="s_30" d="M10.1262 5.48438L10.5422 6.7646L9.45312 5.97338H10.7992L9.71021 6.7646L10.1262 5.48438Z" fill="white"/>
<path id="s_31" d="M10.1262 7.96094L10.5422 9.24116L9.45312 8.44994H10.7992L9.71021 9.24116L10.1262 7.96094Z" fill="white"/>
</g>
<path id="s_32" d="M10.1262 10.4375L10.5422 11.7177L9.45312 10.9265H10.7992L9.71021 11.7177L10.1262 10.4375Z" fill="white"/>
</g>
<g id="s4_8">
<path id="s_33" d="M11.5832 1.77344L11.9992 3.05366L10.9102 2.26244H12.2563L11.1672 3.05366L11.5832 1.77344Z" fill="white"/>
<path id="s_34" d="M11.5832 4.25L11.9992 5.53023L10.9102 4.739H12.2563L11.1672 5.53023L11.5832 4.25Z" fill="white"/>
<path id="s_35" d="M11.5832 6.72656L11.9992 8.00679L10.9102 7.21557H12.2563L11.1672 8.00679L11.5832 6.72656Z" fill="white"/>
<path id="s_36" d="M11.5832 9.20312L11.9992 10.4834L10.9102 9.69213H12.2563L11.1672 10.4834L11.5832 9.20312Z" fill="white"/>
</g>
</g>
</g>
<g id="s9_5">
<g id="s5_5">
<g id="s4_9">
<path id="s_37" d="M13.0363 0.53125L13.4523 1.81148L12.3633 1.02025H13.7094L12.6204 1.81148L13.0363 0.53125Z" fill="white"/>
<path id="s_38" d="M13.0363 3.00781L13.4523 4.28804L12.3633 3.49682H13.7094L12.6204 4.28804L13.0363 3.00781Z" fill="white"/>
<path id="s_39" d="M13.0363 5.48438L13.4523 6.7646L12.3633 5.97338H13.7094L12.6204 6.7646L13.0363 5.48438Z" fill="white"/>
<path id="s_40" d="M13.0363 7.96094L13.4523 9.24116L12.3633 8.44994H13.7094L12.6204 9.24116L13.0363 7.96094Z" fill="white"/>
</g>
<path id="s_41" d="M13.0363 10.4375L13.4523 11.7177L12.3633 10.9265H13.7094L12.6204 11.7177L13.0363 10.4375Z" fill="white"/>
</g>
<g id="s4_10">
<path id="s_42" d="M14.4934 1.77344L14.9093 3.05366L13.8203 2.26244H15.1664L14.0774 3.05366L14.4934 1.77344Z" fill="white"/>
<path id="s_43" d="M14.4934 4.25L14.9093 5.53023L13.8203 4.739H15.1664L14.0774 5.53023L14.4934 4.25Z" fill="white"/>
<path id="s_44" d="M14.4934 6.72656L14.9093 8.00679L13.8203 7.21557H15.1664L14.0774 8.00679L14.4934 6.72656Z" fill="white"/>
<path id="s_45" d="M14.4934 9.20312L14.9093 10.4834L13.8203 9.69213H15.1664L14.0774 10.4834L14.4934 9.20312Z" fill="white"/>
</g>
</g>
<g id="s5_6">
<g id="s4_11">
<path id="s_46" d="M15.9504 0.53125L16.3664 1.81148L15.2773 1.02025H16.6235L15.5344 1.81148L15.9504 0.53125Z" fill="white"/>
<path id="s_47" d="M15.9504 3.00781L16.3664 4.28804L15.2773 3.49682H16.6235L15.5344 4.28804L15.9504 3.00781Z" fill="white"/>
<path id="s_48" d="M15.9504 5.48438L16.3664 6.7646L15.2773 5.97338H16.6235L15.5344 6.7646L15.9504 5.48438Z" fill="white"/>
<path id="s_49" d="M15.9504 7.96094L16.3664 9.24116L15.2773 8.44994H16.6235L15.5344 9.24116L15.9504 7.96094Z" fill="white"/>
</g>
<path id="s_50" d="M15.9504 10.4375L16.3664 11.7177L15.2773 10.9265H16.6235L15.5344 11.7177L15.9504 10.4375Z" fill="white"/>
</g>
</g>
</g>
<defs>
<clipPath id="clip0_611_13334">
<rect width="44" height="23" fill="white" transform="translate(-0.222656)"/>
</clipPath>
</defs>
</svg>
