<svg width="45" height="44" viewBox="0 0 45 44" fill="none" xmlns="http://www.w3.org/2000/svg">
<g clip-path="url(#clip0_611_13324)">
<path d="M43.9056 33.7159H35.2159V23.6881C35.2172 23.5592 35.181 23.4327 35.1118 23.3239C35.0425 23.2152 34.9432 23.1289 34.8258 23.0756L25.073 18.7356C26.193 17.1207 27.2031 15.4323 28.0964 13.6817H38.5787C41.156 13.7344 43.2026 15.8665 43.15 18.4438C43.0988 20.9471 41.0819 22.964 38.5787 23.0152C36.7881 22.709 36.7881 24.6712 38.5787 24.3611C41.8993 24.3013 44.5427 21.5609 44.483 18.2402C44.4246 15.0038 41.815 12.3942 38.5787 12.3359H28.7089C35.764 -4.04875 9.34189 -4.02931 16.395 12.3359H2.78799L4.32499 10.8086C4.93939 10.2117 3.99925 9.26762 3.38287 9.85674L0.70678 12.5387C0.581914 12.6656 0.511936 12.8365 0.511936 13.0146C0.511936 13.1927 0.581914 13.3636 0.70678 13.4905L3.38296 16.1569C3.98179 16.785 4.94344 15.7999 4.32508 15.2089L2.78799 13.6817H17.0055C17.8871 15.4294 18.8936 17.1113 20.0172 18.7142L10.2196 23.0932C10.098 23.2065 10.0033 23.3455 9.94219 23.5C9.88111 23.6546 9.85525 23.8208 9.86649 23.9866C9.82159 25.982 9.88989 33.5228 9.86649 33.7159H6.51355C3.92812 33.7159 1.8322 31.62 1.8322 29.0346C1.8322 26.4492 3.92812 24.3532 6.51355 24.3532C8.30223 24.6693 8.30997 22.7012 6.51355 23.0074C3.19235 23.0074 0.5 25.6997 0.5 29.0209C0.5 32.3421 3.19235 35.0345 6.51355 35.0345H9.86262C9.86262 35.4051 9.86262 36.9167 9.87234 37.8413C9.88602 38.1456 9.98743 38.4635 10.2624 38.5415C10.2624 38.5415 22.272 43.8919 22.3012 43.9133C22.4702 43.9705 22.6544 43.9629 22.8181 43.8919L34.8257 38.5415C35.1904 38.3699 35.2372 38.0286 35.2372 37.656C35.2255 36.7295 35.1963 35.4402 35.2217 35.0345H43.9114C44.0737 35.016 44.2235 34.9382 44.3321 34.816C44.4406 34.6939 44.5002 34.536 44.4995 34.3726C44.4988 34.2092 44.4378 34.0518 44.3282 33.9306C44.2186 33.8094 44.0681 33.733 43.9056 33.7159ZM22.553 28.3245L17.8385 26.2238L28.2096 21.5873L32.9143 23.6881L22.553 28.3245ZM16.4613 7.32102C17.2357 -3.8732 38.5202 0.464871 22.5529 19.9236C20.9788 17.8832 16.4613 11.5634 16.4613 7.32102ZM22.0185 21.4293C23.0757 22.192 23.1751 21.0861 24.2792 19.8455L26.5672 20.8559L16.202 25.4923C15.2072 25.0418 13.1513 24.1269 12.1604 23.6881L20.8014 19.8455C21.4743 20.7564 21.9502 21.3513 22.0185 21.4293ZM11.1988 37.5058V24.7179C13.832 25.8883 19.2683 28.3245 21.8703 29.4949V42.2748L11.1988 37.5058ZM33.8896 37.5058L23.2083 42.2807V29.4949L33.8896 24.7179V37.5058ZM26.3195 7.37951C26.3195 5.29176 24.6271 3.59934 22.5393 3.59934C20.4516 3.59934 18.7591 5.29176 18.7591 7.37951C18.7591 9.46726 20.4516 11.1597 22.5393 11.1597C24.6271 11.1597 26.3195 9.46726 26.3195 7.37951ZM22.553 9.83721C21.2015 9.79902 20.1369 8.67257 20.1751 7.32119C20.2117 6.0234 21.2552 4.97996 22.553 4.94332C23.9044 4.98151 24.9691 6.10796 24.9309 7.45933C24.8942 8.75712 23.8507 9.80057 22.553 9.83721Z" fill="#202020"/>
</g>
<defs>
<clipPath id="clip0_611_13324">
<rect width="44" height="44" fill="white" transform="translate(0.5)"/>
</clipPath>
</defs>
</svg>
