<svg width="45" height="44" viewBox="0 0 45 44" fill="none" xmlns="http://www.w3.org/2000/svg">
<g id="Frame" clip-path="url(#clip0_611_13418)">
<g id="Group">
<path id="Vector" d="M11.5076 31.5759L9.04362 32.1244C7.73748 32.4078 6.56835 33.1313 5.73198 34.1738C4.8956 35.2163 4.44277 36.5145 4.44929 37.851V39.0375C4.45042 39.8414 4.71502 40.6226 5.20257 41.2617C5.69012 41.9008 6.37373 42.3624 7.14869 42.5759C9.52835 43.2249 14.045 44 22.0493 44C30.0536 44 34.5702 43.2249 36.9499 42.5759C37.7248 42.3624 38.4085 41.9008 38.896 41.2617C39.3836 40.6226 39.6482 39.8414 39.6493 39.0375V37.851C39.6558 36.5145 39.203 35.2163 38.3666 34.1738C37.5302 33.1313 36.3611 32.4078 35.055 32.1244L32.591 31.5759L29.2294 29.5599L27.8778 26.4066L28.3178 25.8999L28.6486 25.9886C28.9946 26.0801 29.351 26.1267 29.709 26.1272C30.7903 26.1249 31.8265 25.6936 32.5903 24.9281C33.354 24.1626 33.7828 23.1253 33.7826 22.044V21.164C34.4107 21.0018 34.9673 20.636 35.3654 20.1239C35.7635 19.6117 35.9805 18.982 35.9826 18.3333V15.4C35.9802 14.7516 35.763 14.1222 35.3649 13.6104C34.9669 13.0985 34.4105 12.7329 33.7826 12.5708V11.7333C33.7826 8.62146 32.5464 5.63704 30.346 3.43661C28.1456 1.23619 25.1612 0 22.0493 0C18.9374 0 15.953 1.23619 13.7526 3.43661C11.5521 5.63704 10.316 8.62146 10.316 11.7333V12.5708C9.68812 12.7329 9.13168 13.0985 8.73364 13.6104C8.3356 14.1222 8.11839 14.7516 8.11596 15.4V18.3333C8.11596 19.1113 8.425 19.8574 8.97511 20.4075C9.52522 20.9576 10.2713 21.2667 11.0493 21.2667H12.516C12.7663 21.2642 13.0144 21.2186 13.2493 21.1317V21.3847C13.2489 22.4317 13.6288 23.4431 14.3185 24.2308L16.2252 26.4051L14.8729 29.5585L11.5076 31.5759ZM15.241 31.0471C16.5674 32.7949 18.3836 34.1087 20.4587 34.8216C19.7515 35.5141 19.164 36.3189 18.72 37.2035C16.4114 36.1259 14.3985 34.5049 12.8533 32.4793L15.241 31.0471ZM38.1826 37.851V39.0375C38.1829 39.5204 38.0246 39.9901 37.7321 40.3743C37.4396 40.7585 37.029 41.036 36.5634 41.1642C34.2703 41.7868 29.8908 42.5333 22.0493 42.5333C14.2078 42.5333 9.82829 41.7868 7.53516 41.1605C7.07019 41.0325 6.66004 40.7555 6.36757 40.3721C6.0751 39.9886 5.91646 39.5198 5.91595 39.0375V37.851C5.91093 36.8485 6.25063 35.8747 6.87813 35.0929C7.50563 34.3111 8.3828 33.7687 9.36262 33.5566L11.4702 33.088C12.2967 34.1975 14.8025 37.2431 18.3504 38.6349C18.6539 38.7516 18.9904 38.7488 19.292 38.6272C19.5936 38.5055 19.8378 38.274 19.9754 37.9793C20.4565 36.9615 21.1662 36.0685 22.0493 35.3701C22.9326 36.0683 23.6428 36.961 24.1246 37.9786C24.2285 38.2 24.3933 38.3872 24.5996 38.5185C24.8059 38.6498 25.0453 38.7197 25.2899 38.72C25.4475 38.7202 25.6038 38.6906 25.7504 38.6327C29.2976 37.2394 31.8034 34.1953 32.6298 33.0858L34.7374 33.5544C35.7173 33.7668 36.5945 34.3097 37.2217 35.0919C37.849 35.8742 38.1882 36.8483 38.1826 37.851ZM25.3786 37.2035C24.9349 36.3187 24.3474 35.5138 23.6399 34.8216C25.7149 34.1087 27.5311 32.7949 28.8576 31.0471L31.2453 32.4793C29.7 34.5048 27.687 36.1257 25.3786 37.2035ZM31.2966 24.1157C30.7647 24.5207 30.0968 24.7046 29.4325 24.629L29.7801 24.2315C30.4697 23.4435 30.8496 22.4319 30.8493 21.3847V21.1317C31.0841 21.2186 31.3322 21.2642 31.5826 21.2667H32.316V22.044C32.3174 22.4445 32.2261 22.84 32.0493 23.1994C31.8724 23.5588 31.6148 23.8724 31.2966 24.1157ZM29.3826 12.4557C22.6455 12.2533 21.2727 9.28253 21.2639 9.26127C21.2095 9.12507 21.1155 9.00832 20.994 8.9261C20.8726 8.84387 20.7293 8.79995 20.5826 8.8C18.449 8.80336 16.3964 9.61759 14.8406 11.0777C15.497 7.4382 18.6378 4.4 22.0493 4.4C23.9936 4.40214 25.8576 5.17544 27.2324 6.55024C28.6072 7.92505 29.3805 9.78907 29.3826 11.7333V12.4557ZM34.516 15.4V18.3333C34.516 18.7223 34.3614 19.0954 34.0864 19.3704C33.8113 19.6455 33.4383 19.8 33.0493 19.8H31.5826C31.3881 19.8 31.2016 19.7227 31.0641 19.5852C30.9265 19.4477 30.8493 19.2612 30.8493 19.0667V14.6667C30.8493 14.4722 30.9265 14.2856 31.0641 14.1481C31.2016 14.0106 31.3881 13.9333 31.5826 13.9333H33.0493C33.4383 13.9333 33.8113 14.0879 34.0864 14.3629C34.3614 14.638 34.516 15.011 34.516 15.4ZM22.0493 1.46667C24.7713 1.46958 27.381 2.55218 29.3057 4.47692C31.2304 6.40166 32.313 9.01134 32.316 11.7333V12.4667H31.5826C31.3322 12.4691 31.0841 12.5147 30.8493 12.6016V11.7333C30.8468 9.4002 29.9188 7.16335 28.269 5.51358C26.6193 3.86381 24.3824 2.93586 22.0493 2.93333C17.3611 2.93333 13.2493 7.38833 13.2493 12.4667V12.6016C13.0144 12.5147 12.7663 12.4691 12.516 12.4667H11.7826V11.7333C11.7855 9.01134 12.8681 6.40166 14.7929 4.47692C16.7176 2.55218 19.3273 1.46958 22.0493 1.46667ZM12.516 19.8H11.0493C10.6603 19.8 10.2873 19.6455 10.0122 19.3704C9.73715 19.0954 9.58262 18.7223 9.58262 18.3333V15.4C9.58262 15.011 9.73715 14.638 10.0122 14.3629C10.2873 14.0879 10.6603 13.9333 11.0493 13.9333H12.516C12.7104 13.9333 12.897 14.0106 13.0345 14.1481C13.172 14.2856 13.2493 14.4722 13.2493 14.6667V19.0667C13.2493 19.2612 13.172 19.4477 13.0345 19.5852C12.897 19.7227 12.7104 19.8 12.516 19.8ZM14.716 21.3847V13.42C15.3341 12.5254 16.1437 11.7795 17.0858 11.2365C18.028 10.6935 19.0792 10.367 20.1632 10.2806C20.8554 11.3285 23.1346 13.7383 29.3826 13.9172V21.3847C29.3827 22.0767 29.1315 22.7451 28.6757 23.2657L27.8177 24.2462L25.7644 23.6977L25.7864 23.6067C25.8312 23.4193 25.8387 23.2249 25.8084 23.0346C25.7781 22.8443 25.7106 22.6618 25.6097 22.4976C25.5088 22.3334 25.3766 22.1907 25.2206 22.0777C25.0645 21.9646 24.8877 21.8834 24.7003 21.8387L22.5612 21.3253C21.9934 21.1894 21.395 21.2845 20.8974 21.5898C20.3998 21.8951 20.0439 22.3856 19.908 22.9533C19.772 23.5211 19.8672 24.1195 20.1725 24.6171C20.4778 25.1147 20.9682 25.4706 21.536 25.6065L23.6751 26.1199C23.788 26.1469 23.9037 26.1607 24.0198 26.1609C24.3327 26.1611 24.6373 26.0603 24.8883 25.8735C25.1394 25.6867 25.3234 25.4238 25.4131 25.124L26.7397 25.4789L25.6426 26.73C25.3305 27.087 24.9456 27.3731 24.5138 27.5691C24.082 27.7652 23.6132 27.8666 23.139 27.8667H20.9596C20.4854 27.8664 20.0167 27.7648 19.585 27.5688C19.1532 27.3728 18.7683 27.0868 18.456 26.73L15.4244 23.265C14.968 22.7449 14.7162 22.0767 14.716 21.3847ZM24.3593 23.2657L24.019 24.6913L21.8792 24.178C21.7844 24.1567 21.6948 24.1168 21.6155 24.0606C21.5363 24.0044 21.469 23.933 21.4176 23.8505C21.3662 23.7681 21.3317 23.6763 21.3161 23.5804C21.3005 23.4845 21.3041 23.3865 21.3267 23.292C21.3492 23.1975 21.3904 23.1084 21.4477 23.03C21.505 22.9515 21.5773 22.8853 21.6604 22.835C21.7435 22.7847 21.8358 22.7515 21.9319 22.7372C22.028 22.7229 22.126 22.7278 22.2202 22.7517L24.3593 23.2657ZM17.3501 27.6958C17.8002 28.2104 18.3551 28.6227 18.9776 28.9051C19.6002 29.1876 20.2759 29.3336 20.9596 29.3333H23.139C23.8226 29.3335 24.4984 29.1875 25.1209 28.9051C25.7435 28.6226 26.2984 28.2103 26.7485 27.6958L26.8072 27.6291L27.817 29.9867C26.4256 31.9056 24.3694 33.2374 22.0493 33.7223C19.7292 33.2374 17.6729 31.9056 16.2816 29.9867L17.2922 27.6291L17.3501 27.6958Z" fill="#202020"/>
</g>
</g>
<defs>
<clipPath id="clip0_611_13418">
<rect width="44" height="44" fill="white" transform="translate(0.0507812)"/>
</clipPath>
</defs>
</svg>
